{"title":"Shadow Dancer 2012 BRRip 720p x264 AAC - ViZNU [P2PDL]","uid":8050992,"size":620187822,"categoryP":"video","categoryS":"hd___movies","magnet":"?xt=urn:btih:16c8a7a641d172b5f3347d67a8199d6155cdf188&amp;dn=Shadow+Dancer+2012+BRRip+720p+x264+AAC+-+ViZNU+%5BP2PDL%5D&amp;tr=udp%3A%2F%2Ftracker.openbittorrent.com%3A80&amp;tr=udp%3A%2F%2Fopen.demonii.com%3A1337&amp;tr=udp%3A%2F%2Ftracker.coppersurfer.tk%3A6969&amp;tr=udp%3A%2F%2Fexodus.desync.com%3A6969","seeders":0,"leechers":1,"uploader":"Vitamin_X","files":-1,"time":1358815440,"description":"_________________________  Visit us at _________________________\n  &lt;a href=&quot;\nhttp://p2pdl.com&quot; rel=&quot;nofollow&quot; target=&quot;_NEW&quot;&gt;\nhttp://p2pdl.com&lt;/a&gt;  ____________________________ &lt;a href=&quot; http://p2pdl.com&quot; rel=&quot;nofollow&quot; target=&quot;_NEW&quot;&gt; http://p2pdl.com&lt;/a&gt;\n\n &lt;a href=&quot;\nhttp://www.shotpix.com/images/22330689245074893108.jpg&quot; rel=&quot;nofollow&quot; target=&quot;_NEW&quot;&gt;\nhttp://www.shotpix.com/images/22330689245074893108.jpg&lt;/a&gt;\n\n\nShadow Dancer 2012 BRRip 720p x264 AAC - ViZNU [P2PDL]\n\t\t\t\t\nGenre: Thriller\nSet in 1990s Belfast, an active member of the IRA becomes an informant for MI5 in order to protect her son's welfare.\nDirector: James Marsh\nStars:  Clive Owen, Andrea Riseborough and Gillian Anderson\nRated: No.\n\nImdb: http://www.imdb.com/title/tt1770734/\n\nTrailer:\n\n\nGeneral\nFormat                         : MPEG-4\nFormat profile                 : Base Media / Version 2\nCodec ID                       : mp42\nFile size                      : 584 MiB\nDuration                       : 1h 41mn\nOverall bit rate mode          : Variable\nMovie name                     : The Shadow Dancer 2012 BRRip 720p x264 AAC - ViZNU [P2PDL]\n\nSource                         : 720p.BluRay.X264-7SinS (Thanks)\n\nVideo\nID                             : 1\nFormat                         : AVC\nFormat/Info                    : Advanced Video Codec\nFormat profile                 : &lt;a class=&quot;__cf_email__&quot; href=&quot;/cdn-cgi/l/email-protection&quot; data-cfemail=&quot;377f5e505f777b031906&quot;&gt;[email&amp;#160;protected]&lt;/a&gt;&lt;script cf-hash='f9e31' type=&quot;text/javascript&quot;&gt;\n/* &lt;![CDATA[ */!function(){try{var t=&quot;currentScript&quot;in document?document.currentScript:function(){for(var t=document.getElementsByTagName(&quot;script&quot;),e=t.length;e--;)if(t[e].getAttribute(&quot;cf-hash&quot;))return t[e]}();if(t&amp;&amp;t.previousSibling){var e,r,n,i,c=t.previousSibling,a=c.getAttribute(&quot;data-cfemail&quot;);if(a){for(e=&quot;&quot;,r=parseInt(a.substr(0,2),16),n=2;a.length-n;n+=2)i=parseInt(a.substr(n,2),16)^r,e+=String.fromCharCode(i);e=document.createTextNode(e),c.parentNode.replaceChild(e,c)}}}catch(u){}}();/* ]]&gt; */&lt;/script&gt;\nWidth                          : 1 280 pixels\nHeight                         : 544 pixels\nDisplay aspect ratio           : 2.35:1\nFrame rate mode                : Variable\nFrame rate                     : 23.976 fps\nColor space                    : YUV\nChroma subsampling             : 4:2:0\nBit depth                      : 8 bits\nScan type                      : Progressive\nBits/(Pixel*Frame)             : 0.042\nStream size                    : 510 MiB (87%)\nWriting library                : x264 core 128\n\nAudio\nID                             : 2\nFormat                         : AAC\nFormat/Info                    : Advanced Audio Codec\nBit rate mode                  : Variable\nBit rate                       : 96.0 Kbps\nChannel(s)                     : 2 channels\nChannel positions              : Front: L R\nSampling rate                  : 48.0 KHz\nStream size                    : 69.9 MiB (12%)\nLanguage                       : English\n\nSubtitle                       : Yes (English)\n\n\nScreens:\n &lt;a href=&quot;\nhttp://www.shotpix.com/images/04522069593978153208.jpg&quot; rel=&quot;nofollow&quot; target=&quot;_NEW&quot;&gt;\nhttp://www.shotpix.com/images/04522069593978153208.jpg&lt;/a&gt; &lt;a href=&quot;\nhttp://www.shotpix.com/images/98093933528917069440.jpg&quot; rel=&quot;nofollow&quot; target=&quot;_NEW&quot;&gt;\nhttp://www.shotpix.com/images/98093933528917069440.jpg&lt;/a&gt; &lt;a href=&quot;\nhttp://www.shotpix.com/images/24583111313584388233.jpg&quot; rel=&quot;nofollow&quot; target=&quot;_NEW&quot;&gt;\nhttp://www.shotpix.com/images/24583111313584388233.jpg&lt;/a&gt; &lt;a href=&quot;\nhttp://www.shotpix.com/images/29201229446109844267.jpg&quot; rel=&quot;nofollow&quot; target=&quot;_NEW&quot;&gt;\nhttp://www.shotpix.com/images/29201229446109844267.jpg&lt;/a&gt; &lt;a href=&quot;\nhttp://www.shotpix.com/images/56191312764967344361.jpg&quot; rel=&quot;nofollow&quot; target=&quot;_NEW&quot;&gt;\nhttp://www.shotpix.com/images/56191312764967344361.jpg&lt;/a&gt;\n\nThumbs:\n &lt;a href=&quot;\nhttp://www.shotpix.com/images/59810164191789977710.jpg&quot; rel=&quot;nofollow&quot; target=&quot;_NEW&quot;&gt;\nhttp://www.shotpix.com/images/59810164191789977710.jpg&lt;/a&gt;\n\n----------------------------------------------------------------------------------------------------\n\n\nRecommend to you to use latest version of VLC player. Install K-Lite Codec Pack or shark007 codecs\nin case of any kind of problem in playback (For non-VLC Media Player users). Alternatively, install\nCore AVC codecs, the fastest decoder that there is coupled with Community Center Codec Pack and play\non Windows Media Player Classic. Check sample to be sure.\nEnjoy!\n\nGreets to: VYTO, a2zRG, Stumpie1971, Sheychi, TorDigger, Ash968, StyLishSaLH and staff members at\nExtraTorrent, TPB,KAT, 1337x, PublicHD, Ahashare, BTScene, SilverTorrent, LimeTorrents, TorrentMafia,\nP2PDL, and all others.\n\nEncoder Notes: Looking For Early Access To Anything You Can Provide DVDScr, R5, DVDR, BluRay, Direct\nAudio, Early Music Releases, Seedboxes, Dedicated Servers anything u can provide, Advance / Promo CDs/\nDVDs. If You Got anything to offer contact me at &quot;&lt;a class=&quot;__cf_email__&quot; href=&quot;/cdn-cgi/l/email-protection&quot; data-cfemail=&quot;8cfcfeebcce4f9ffe4a2efe3e1&quot;&gt;[email&amp;#160;protected]&lt;/a&gt;&lt;script cf-hash='f9e31' type=&quot;text/javascript&quot;&gt;\n/* &lt;![CDATA[ */!function(){try{var t=&quot;currentScript&quot;in document?document.currentScript:function(){for(var t=document.getElementsByTagName(&quot;script&quot;),e=t.length;e--;)if(t[e].getAttribute(&quot;cf-hash&quot;))return t[e]}();if(t&amp;&amp;t.previousSibling){var e,r,n,i,c=t.previousSibling,a=c.getAttribute(&quot;data-cfemail&quot;);if(a){for(e=&quot;&quot;,r=parseInt(a.substr(0,2),16),n=2;a.length-n;n+=2)i=parseInt(a.substr(n,2),16)^r,e+=String.fromCharCode(i);e=document.createTextNode(e),c.parentNode.replaceChild(e,c)}}}catch(u){}}();/* ]]&gt; */&lt;/script&gt;&quot;.\n\nFacebook Fan Page: www . facebook . com / p2pdl","torrent":{"xt":"urn:btih:16c8a7a641d172b5f3347d67a8199d6155cdf188","amp;dn":"Shadow+Dancer+2012+BRRip+720p+x264+AAC+-+ViZNU+%5BP2PDL%5D","amp;tr":["udp%3A%2F%2Ftracker.openbittorrent.com%3A80","udp%3A%2F%2Fopen.demonii.com%3A1337","udp%3A%2F%2Ftracker.coppersurfer.tk%3A6969","udp%3A%2F%2Fexodus.desync.com%3A6969"],"infoHash":"16c8a7a641d172b5f3347d67a8199d6155cdf188","infoHashBuffer":{"type":"Buffer","data":[22,200,167,166,65,209,114,181,243,52,125,103,168,25,157,97,85,205,241,136]},"announce":[],"urlList":[]}}